<mxfile host="app.diagrams.net" agent="Mozilla/5.0 (Windows NT 10.0; Win64; x64) AppleWebKit/537.36 (KHTML, like Gecko) Chrome/129.0.0.0 Safari/537.36" version="24.7.17">
  <diagram name="Страница — 1" id="p5J5hyuts3rzbcEHx-x5">
    <mxGraphModel dx="2977" dy="878" grid="1" gridSize="10" guides="1" tooltips="1" connect="1" arrows="1" fold="1" page="1" pageScale="1" pageWidth="827" pageHeight="1169" math="0" shadow="0">
      <root>
        <mxCell id="0" />
        <mxCell id="1" parent="0" />
        <mxCell id="SpYZrqXkeBf5EiIH25qF-13" value="&amp;lt;&amp;lt;interface&amp;gt;&amp;gt; IBonus" style="swimlane;fontStyle=1;align=center;verticalAlign=top;childLayout=stackLayout;horizontal=1;startSize=26;horizontalStack=0;resizeParent=1;resizeParentMax=0;resizeLast=0;collapsible=1;marginBottom=0;whiteSpace=wrap;html=1;" vertex="1" parent="1">
          <mxGeometry x="10" y="290" width="200" height="110" as="geometry" />
        </mxCell>
        <mxCell id="SpYZrqXkeBf5EiIH25qF-14" value="&amp;lt;&amp;lt;getter&amp;gt;&amp;gt; + cost1hour: float&lt;div&gt;&lt;div&gt;&amp;lt;&amp;lt;setter&amp;gt;&amp;gt; + cost1hour: float&lt;/div&gt;&lt;/div&gt;" style="text;strokeColor=none;fillColor=none;align=left;verticalAlign=top;spacingLeft=4;spacingRight=4;overflow=hidden;rotatable=0;points=[[0,0.5],[1,0.5]];portConstraint=eastwest;whiteSpace=wrap;html=1;" vertex="1" parent="SpYZrqXkeBf5EiIH25qF-13">
          <mxGeometry y="26" width="200" height="44" as="geometry" />
        </mxCell>
        <mxCell id="SpYZrqXkeBf5EiIH25qF-15" value="" style="line;strokeWidth=1;fillColor=none;align=left;verticalAlign=middle;spacingTop=-1;spacingLeft=3;spacingRight=3;rotatable=0;labelPosition=right;points=[];portConstraint=eastwest;strokeColor=inherit;" vertex="1" parent="SpYZrqXkeBf5EiIH25qF-13">
          <mxGeometry y="70" width="200" height="8" as="geometry" />
        </mxCell>
        <mxCell id="SpYZrqXkeBf5EiIH25qF-16" value="+&amp;nbsp;calc (number_hours: float): float" style="text;strokeColor=none;fillColor=none;align=left;verticalAlign=top;spacingLeft=4;spacingRight=4;overflow=hidden;rotatable=0;points=[[0,0.5],[1,0.5]];portConstraint=eastwest;whiteSpace=wrap;html=1;" vertex="1" parent="SpYZrqXkeBf5EiIH25qF-13">
          <mxGeometry y="78" width="200" height="32" as="geometry" />
        </mxCell>
        <mxCell id="SpYZrqXkeBf5EiIH25qF-17" value="BonusA" style="swimlane;fontStyle=1;align=center;verticalAlign=top;childLayout=stackLayout;horizontal=1;startSize=26;horizontalStack=0;resizeParent=1;resizeParentMax=0;resizeLast=0;collapsible=1;marginBottom=0;whiteSpace=wrap;html=1;" vertex="1" parent="1">
          <mxGeometry x="380" y="50" width="360" height="180" as="geometry" />
        </mxCell>
        <mxCell id="SpYZrqXkeBf5EiIH25qF-18" value="&amp;lt;&amp;lt;getter&amp;gt;&amp;gt; + cost1hour: float&lt;div&gt;&amp;lt;&amp;lt;setter&amp;gt;&amp;gt; + cost1hour: float&lt;/div&gt;&lt;div&gt;- _a: float&lt;/div&gt;&lt;div&gt;- _b: float&lt;/div&gt;" style="text;strokeColor=none;fillColor=none;align=left;verticalAlign=top;spacingLeft=4;spacingRight=4;overflow=hidden;rotatable=0;points=[[0,0.5],[1,0.5]];portConstraint=eastwest;whiteSpace=wrap;html=1;" vertex="1" parent="SpYZrqXkeBf5EiIH25qF-17">
          <mxGeometry y="26" width="360" height="74" as="geometry" />
        </mxCell>
        <mxCell id="SpYZrqXkeBf5EiIH25qF-19" value="" style="line;strokeWidth=1;fillColor=none;align=left;verticalAlign=middle;spacingTop=-1;spacingLeft=3;spacingRight=3;rotatable=0;labelPosition=right;points=[];portConstraint=eastwest;strokeColor=inherit;" vertex="1" parent="SpYZrqXkeBf5EiIH25qF-17">
          <mxGeometry y="100" width="360" height="8" as="geometry" />
        </mxCell>
        <mxCell id="SpYZrqXkeBf5EiIH25qF-20" value="&amp;lt;&amp;lt;constructor&amp;gt;&amp;gt; + BonusA (cost1hour: float)&lt;div&gt;&amp;lt;&amp;lt;constructor&amp;gt;&amp;gt; + BonusA (cost1hour: float, a: float)&lt;/div&gt;&lt;div&gt;&amp;lt;&amp;lt;constructor&amp;gt;&amp;gt; + BonusA (cost1hour: float, a: float, b: float)&lt;/div&gt;&lt;div&gt;+ calc (number_hours: float): float&lt;/div&gt;" style="text;strokeColor=none;fillColor=none;align=left;verticalAlign=top;spacingLeft=4;spacingRight=4;overflow=hidden;rotatable=0;points=[[0,0.5],[1,0.5]];portConstraint=eastwest;whiteSpace=wrap;html=1;" vertex="1" parent="SpYZrqXkeBf5EiIH25qF-17">
          <mxGeometry y="108" width="360" height="72" as="geometry" />
        </mxCell>
        <mxCell id="SpYZrqXkeBf5EiIH25qF-21" value="BonusB" style="swimlane;fontStyle=1;align=center;verticalAlign=top;childLayout=stackLayout;horizontal=1;startSize=26;horizontalStack=0;resizeParent=1;resizeParentMax=0;resizeLast=0;collapsible=1;marginBottom=0;whiteSpace=wrap;html=1;" vertex="1" parent="1">
          <mxGeometry x="380" y="270" width="380" height="190" as="geometry" />
        </mxCell>
        <mxCell id="SpYZrqXkeBf5EiIH25qF-22" value="&amp;lt;&amp;lt;getter&amp;gt;&amp;gt; + cost1hour: float&lt;div&gt;&amp;lt;&amp;lt;setter&amp;gt;&amp;gt; + cost1hour: float&lt;/div&gt;&lt;div&gt;- _a: float&lt;/div&gt;&lt;div&gt;- _b: float&lt;/div&gt;&lt;div&gt;- _x: float&lt;/div&gt;" style="text;strokeColor=none;fillColor=none;align=left;verticalAlign=top;spacingLeft=4;spacingRight=4;overflow=hidden;rotatable=0;points=[[0,0.5],[1,0.5]];portConstraint=eastwest;whiteSpace=wrap;html=1;" vertex="1" parent="SpYZrqXkeBf5EiIH25qF-21">
          <mxGeometry y="26" width="380" height="84" as="geometry" />
        </mxCell>
        <mxCell id="SpYZrqXkeBf5EiIH25qF-23" value="" style="line;strokeWidth=1;fillColor=none;align=left;verticalAlign=middle;spacingTop=-1;spacingLeft=3;spacingRight=3;rotatable=0;labelPosition=right;points=[];portConstraint=eastwest;strokeColor=inherit;" vertex="1" parent="SpYZrqXkeBf5EiIH25qF-21">
          <mxGeometry y="110" width="380" height="8" as="geometry" />
        </mxCell>
        <mxCell id="SpYZrqXkeBf5EiIH25qF-24" value="&amp;lt;&amp;lt;constructor&amp;gt;&amp;gt; + BonusB (cost1hour: float, x: float)&lt;div&gt;&amp;lt;&amp;lt;constructor&amp;gt;&amp;gt; + BonusB (cost1hour: float, a: float, x: float)&lt;/div&gt;&lt;div&gt;&amp;lt;&amp;lt;constructor&amp;gt;&amp;gt; + BonusB (cost1hour: float, a: float, b: float, x: float)&lt;/div&gt;&lt;div&gt;+ calc (number_hours: float): float&lt;/div&gt;" style="text;strokeColor=none;fillColor=none;align=left;verticalAlign=top;spacingLeft=4;spacingRight=4;overflow=hidden;rotatable=0;points=[[0,0.5],[1,0.5]];portConstraint=eastwest;whiteSpace=wrap;html=1;" vertex="1" parent="SpYZrqXkeBf5EiIH25qF-21">
          <mxGeometry y="118" width="380" height="72" as="geometry" />
        </mxCell>
        <mxCell id="SpYZrqXkeBf5EiIH25qF-25" value="BonusC" style="swimlane;fontStyle=1;align=center;verticalAlign=top;childLayout=stackLayout;horizontal=1;startSize=26;horizontalStack=0;resizeParent=1;resizeParentMax=0;resizeLast=0;collapsible=1;marginBottom=0;whiteSpace=wrap;html=1;" vertex="1" parent="1">
          <mxGeometry x="380" y="500" width="430" height="210" as="geometry" />
        </mxCell>
        <mxCell id="SpYZrqXkeBf5EiIH25qF-89" value="" style="endArrow=none;html=1;rounded=0;" edge="1" parent="SpYZrqXkeBf5EiIH25qF-25">
          <mxGeometry width="50" height="50" relative="1" as="geometry">
            <mxPoint x="440" y="-490" as="sourcePoint" />
            <mxPoint x="440" y="230" as="targetPoint" />
          </mxGeometry>
        </mxCell>
        <mxCell id="SpYZrqXkeBf5EiIH25qF-26" value="&amp;lt;&amp;lt;getter&amp;gt;&amp;gt; + cost1hour: float&lt;div&gt;&amp;lt;&amp;lt;setter&amp;gt;&amp;gt; + cost1hour: float&lt;/div&gt;&lt;div&gt;- _a: float&lt;/div&gt;&lt;div&gt;- _b: float&lt;/div&gt;&lt;div&gt;- _x: float&lt;/div&gt;&lt;div&gt;- _y: float&lt;/div&gt;" style="text;strokeColor=none;fillColor=none;align=left;verticalAlign=top;spacingLeft=4;spacingRight=4;overflow=hidden;rotatable=0;points=[[0,0.5],[1,0.5]];portConstraint=eastwest;whiteSpace=wrap;html=1;" vertex="1" parent="SpYZrqXkeBf5EiIH25qF-25">
          <mxGeometry y="26" width="430" height="104" as="geometry" />
        </mxCell>
        <mxCell id="SpYZrqXkeBf5EiIH25qF-27" value="" style="line;strokeWidth=1;fillColor=none;align=left;verticalAlign=middle;spacingTop=-1;spacingLeft=3;spacingRight=3;rotatable=0;labelPosition=right;points=[];portConstraint=eastwest;strokeColor=inherit;" vertex="1" parent="SpYZrqXkeBf5EiIH25qF-25">
          <mxGeometry y="130" width="430" height="8" as="geometry" />
        </mxCell>
        <mxCell id="SpYZrqXkeBf5EiIH25qF-28" value="&amp;lt;&amp;lt;constructor&amp;gt;&amp;gt; + BonusC (cost1hour: float, x: float, y: float)&lt;div&gt;&amp;lt;&amp;lt;constructor&amp;gt;&amp;gt; + BonusC (cost1hour: float, a: float, x: float, y: float)&lt;/div&gt;&lt;div&gt;&amp;lt;&amp;lt;constructor&amp;gt;&amp;gt; + BonusC (cost1hour: float, a: float, b: float, x: float, y: float)&lt;/div&gt;&lt;div&gt;+ calc (number_hours: float): float&lt;/div&gt;" style="text;strokeColor=none;fillColor=none;align=left;verticalAlign=top;spacingLeft=4;spacingRight=4;overflow=hidden;rotatable=0;points=[[0,0.5],[1,0.5]];portConstraint=eastwest;whiteSpace=wrap;html=1;" vertex="1" parent="SpYZrqXkeBf5EiIH25qF-25">
          <mxGeometry y="138" width="430" height="72" as="geometry" />
        </mxCell>
        <mxCell id="SpYZrqXkeBf5EiIH25qF-37" value="&amp;lt;&amp;lt;interface&amp;gt;&amp;gt; IFactory" style="swimlane;fontStyle=1;align=center;verticalAlign=top;childLayout=stackLayout;horizontal=1;startSize=26;horizontalStack=0;resizeParent=1;resizeParentMax=0;resizeLast=0;collapsible=1;marginBottom=0;whiteSpace=wrap;html=1;" vertex="1" parent="1">
          <mxGeometry x="10" y="960" width="270" height="80" as="geometry" />
        </mxCell>
        <mxCell id="SpYZrqXkeBf5EiIH25qF-38" value="&lt;div&gt;&lt;div&gt;+ getA (cost1hour: float): IBonus&lt;br&gt;+ getB (cost1hour: float, x: float): IBonus&lt;br&gt;+ getC (cost1hour: float, x: float, y: float): IBonus&lt;br&gt;&lt;/div&gt;&lt;/div&gt;" style="text;strokeColor=none;fillColor=none;align=left;verticalAlign=top;spacingLeft=4;spacingRight=4;overflow=hidden;rotatable=0;points=[[0,0.5],[1,0.5]];portConstraint=eastwest;whiteSpace=wrap;html=1;" vertex="1" parent="SpYZrqXkeBf5EiIH25qF-37">
          <mxGeometry y="26" width="270" height="54" as="geometry" />
        </mxCell>
        <mxCell id="SpYZrqXkeBf5EiIH25qF-41" value="FactoryL1" style="swimlane;fontStyle=1;align=center;verticalAlign=top;childLayout=stackLayout;horizontal=1;startSize=26;horizontalStack=0;resizeParent=1;resizeParentMax=0;resizeLast=0;collapsible=1;marginBottom=0;whiteSpace=wrap;html=1;" vertex="1" parent="1">
          <mxGeometry x="435" y="790" width="270" height="80" as="geometry" />
        </mxCell>
        <mxCell id="SpYZrqXkeBf5EiIH25qF-42" value="&lt;div&gt;&lt;div&gt;+ getA (cost1hour: float): IBonus&lt;br&gt;+ getB (cost1hour: float, x: float): IBonus&lt;br&gt;+ getC (cost1hour: float, x: float, y: float): IBonus&lt;br&gt;&lt;/div&gt;&lt;/div&gt;" style="text;strokeColor=none;fillColor=none;align=left;verticalAlign=top;spacingLeft=4;spacingRight=4;overflow=hidden;rotatable=0;points=[[0,0.5],[1,0.5]];portConstraint=eastwest;whiteSpace=wrap;html=1;" vertex="1" parent="SpYZrqXkeBf5EiIH25qF-41">
          <mxGeometry y="26" width="270" height="54" as="geometry" />
        </mxCell>
        <mxCell id="SpYZrqXkeBf5EiIH25qF-47" value="FactoryL2" style="swimlane;fontStyle=1;align=center;verticalAlign=top;childLayout=stackLayout;horizontal=1;startSize=26;horizontalStack=0;resizeParent=1;resizeParentMax=0;resizeLast=0;collapsible=1;marginBottom=0;whiteSpace=wrap;html=1;" vertex="1" parent="1">
          <mxGeometry x="435" y="930" width="270" height="140" as="geometry" />
        </mxCell>
        <mxCell id="SpYZrqXkeBf5EiIH25qF-48" value="- _a: float" style="text;strokeColor=none;fillColor=none;align=left;verticalAlign=top;spacingLeft=4;spacingRight=4;overflow=hidden;rotatable=0;points=[[0,0.5],[1,0.5]];portConstraint=eastwest;whiteSpace=wrap;html=1;" vertex="1" parent="SpYZrqXkeBf5EiIH25qF-47">
          <mxGeometry y="26" width="270" height="26" as="geometry" />
        </mxCell>
        <mxCell id="SpYZrqXkeBf5EiIH25qF-49" value="" style="line;strokeWidth=1;fillColor=none;align=left;verticalAlign=middle;spacingTop=-1;spacingLeft=3;spacingRight=3;rotatable=0;labelPosition=right;points=[];portConstraint=eastwest;strokeColor=inherit;" vertex="1" parent="SpYZrqXkeBf5EiIH25qF-47">
          <mxGeometry y="52" width="270" height="8" as="geometry" />
        </mxCell>
        <mxCell id="SpYZrqXkeBf5EiIH25qF-50" value="&amp;lt;&amp;lt;constructor&amp;gt;&amp;gt; + FactoryL2 (a: float)&lt;div&gt;+ getA (cost1hour: float): IBonus&lt;br&gt;+ getB (cost1hour: float, x: float): IBonus&lt;br&gt;+ getC (cost1hour: float, x: float, y: float): IBonus&lt;br&gt;&lt;/div&gt;" style="text;strokeColor=none;fillColor=none;align=left;verticalAlign=top;spacingLeft=4;spacingRight=4;overflow=hidden;rotatable=0;points=[[0,0.5],[1,0.5]];portConstraint=eastwest;whiteSpace=wrap;html=1;" vertex="1" parent="SpYZrqXkeBf5EiIH25qF-47">
          <mxGeometry y="60" width="270" height="80" as="geometry" />
        </mxCell>
        <mxCell id="SpYZrqXkeBf5EiIH25qF-51" value="FactoryL3" style="swimlane;fontStyle=1;align=center;verticalAlign=top;childLayout=stackLayout;horizontal=1;startSize=26;horizontalStack=0;resizeParent=1;resizeParentMax=0;resizeLast=0;collapsible=1;marginBottom=0;whiteSpace=wrap;html=1;" vertex="1" parent="1">
          <mxGeometry x="435" y="1130" width="270" height="158" as="geometry" />
        </mxCell>
        <mxCell id="SpYZrqXkeBf5EiIH25qF-52" value="- _a: float&lt;div&gt;- _b: float&lt;/div&gt;" style="text;strokeColor=none;fillColor=none;align=left;verticalAlign=top;spacingLeft=4;spacingRight=4;overflow=hidden;rotatable=0;points=[[0,0.5],[1,0.5]];portConstraint=eastwest;whiteSpace=wrap;html=1;" vertex="1" parent="SpYZrqXkeBf5EiIH25qF-51">
          <mxGeometry y="26" width="270" height="44" as="geometry" />
        </mxCell>
        <mxCell id="SpYZrqXkeBf5EiIH25qF-53" value="" style="line;strokeWidth=1;fillColor=none;align=left;verticalAlign=middle;spacingTop=-1;spacingLeft=3;spacingRight=3;rotatable=0;labelPosition=right;points=[];portConstraint=eastwest;strokeColor=inherit;" vertex="1" parent="SpYZrqXkeBf5EiIH25qF-51">
          <mxGeometry y="70" width="270" height="8" as="geometry" />
        </mxCell>
        <mxCell id="SpYZrqXkeBf5EiIH25qF-54" value="&amp;lt;&amp;lt;constructor&amp;gt;&amp;gt; + FactoryL3 (a: float, b: float)&lt;div&gt;+ getA (cost1hour: float): IBonus&lt;br&gt;+ getB (cost1hour: float, x: float): IBonus&lt;br&gt;+ getC (cost1hour: float, x: float, y: float): IBonus&lt;br&gt;&lt;/div&gt;" style="text;strokeColor=none;fillColor=none;align=left;verticalAlign=top;spacingLeft=4;spacingRight=4;overflow=hidden;rotatable=0;points=[[0,0.5],[1,0.5]];portConstraint=eastwest;whiteSpace=wrap;html=1;" vertex="1" parent="SpYZrqXkeBf5EiIH25qF-51">
          <mxGeometry y="78" width="270" height="80" as="geometry" />
        </mxCell>
        <mxCell id="SpYZrqXkeBf5EiIH25qF-61" value="Lec03BLib" style="swimlane;fontStyle=1;align=center;verticalAlign=top;childLayout=stackLayout;horizontal=1;startSize=26;horizontalStack=0;resizeParent=1;resizeParentMax=0;resizeLast=0;collapsible=1;marginBottom=0;whiteSpace=wrap;html=1;" vertex="1" parent="1">
          <mxGeometry x="-450" y="585" width="270" height="80" as="geometry" />
        </mxCell>
        <mxCell id="SpYZrqXkeBf5EiIH25qF-62" value="&lt;div&gt;&lt;div&gt;&lt;span style=&quot;background-color: initial;&quot;&gt;&amp;lt;&amp;lt;static&amp;gt;&amp;gt;&lt;/span&gt;&lt;span style=&quot;background-color: initial;&quot;&gt;&amp;nbsp;&lt;/span&gt;+ getL1 (): IFactory&lt;br&gt;&amp;lt;&amp;lt;static&amp;gt;&amp;gt; + getL2 (a: float): IFactory&lt;br&gt;&amp;lt;&amp;lt;static&amp;gt;&amp;gt;&amp;nbsp;+ getL3 (a: float, b: float): IFactory&lt;br&gt;&lt;/div&gt;&lt;/div&gt;" style="text;strokeColor=none;fillColor=none;align=left;verticalAlign=top;spacingLeft=4;spacingRight=4;overflow=hidden;rotatable=0;points=[[0,0.5],[1,0.5]];portConstraint=eastwest;whiteSpace=wrap;html=1;" vertex="1" parent="SpYZrqXkeBf5EiIH25qF-61">
          <mxGeometry y="26" width="270" height="54" as="geometry" />
        </mxCell>
        <mxCell id="SpYZrqXkeBf5EiIH25qF-63" value="Employee" style="swimlane;fontStyle=1;align=center;verticalAlign=top;childLayout=stackLayout;horizontal=1;startSize=26;horizontalStack=0;resizeParent=1;resizeParentMax=0;resizeLast=0;collapsible=1;marginBottom=0;whiteSpace=wrap;html=1;" vertex="1" parent="1">
          <mxGeometry x="-445" y="280" width="260" height="130" as="geometry" />
        </mxCell>
        <mxCell id="SpYZrqXkeBf5EiIH25qF-64" value="&amp;lt;&amp;lt;getter&amp;gt;&amp;gt; + bonus: IBonus&lt;div&gt;&lt;div&gt;&amp;lt;&amp;lt;setter&amp;gt;&amp;gt; - bonus: IBonus&lt;/div&gt;&lt;/div&gt;" style="text;strokeColor=none;fillColor=none;align=left;verticalAlign=top;spacingLeft=4;spacingRight=4;overflow=hidden;rotatable=0;points=[[0,0.5],[1,0.5]];portConstraint=eastwest;whiteSpace=wrap;html=1;" vertex="1" parent="SpYZrqXkeBf5EiIH25qF-63">
          <mxGeometry y="26" width="260" height="44" as="geometry" />
        </mxCell>
        <mxCell id="SpYZrqXkeBf5EiIH25qF-65" value="" style="line;strokeWidth=1;fillColor=none;align=left;verticalAlign=middle;spacingTop=-1;spacingLeft=3;spacingRight=3;rotatable=0;labelPosition=right;points=[];portConstraint=eastwest;strokeColor=inherit;" vertex="1" parent="SpYZrqXkeBf5EiIH25qF-63">
          <mxGeometry y="70" width="260" height="8" as="geometry" />
        </mxCell>
        <mxCell id="SpYZrqXkeBf5EiIH25qF-66" value="&amp;lt;&amp;lt;constructor&amp;gt;&amp;gt; + Employee (bonus: IBonus)&lt;div&gt;+ calcBonus (number_hours: float): float&lt;/div&gt;" style="text;strokeColor=none;fillColor=none;align=left;verticalAlign=top;spacingLeft=4;spacingRight=4;overflow=hidden;rotatable=0;points=[[0,0.5],[1,0.5]];portConstraint=eastwest;whiteSpace=wrap;html=1;" vertex="1" parent="SpYZrqXkeBf5EiIH25qF-63">
          <mxGeometry y="78" width="260" height="52" as="geometry" />
        </mxCell>
        <mxCell id="SpYZrqXkeBf5EiIH25qF-67" value="" style="endArrow=block;dashed=1;endFill=0;endSize=12;html=1;rounded=0;exitX=-0.007;exitY=0.409;exitDx=0;exitDy=0;entryX=0.998;entryY=0.281;entryDx=0;entryDy=0;exitPerimeter=0;entryPerimeter=0;" edge="1" parent="1" source="SpYZrqXkeBf5EiIH25qF-42" target="SpYZrqXkeBf5EiIH25qF-38">
          <mxGeometry width="160" relative="1" as="geometry">
            <mxPoint x="240" y="910" as="sourcePoint" />
            <mxPoint x="400" y="910" as="targetPoint" />
            <Array as="points">
              <mxPoint x="360" y="838" />
              <mxPoint x="360" y="1000" />
              <mxPoint x="320" y="1000" />
            </Array>
          </mxGeometry>
        </mxCell>
        <mxCell id="SpYZrqXkeBf5EiIH25qF-68" value="" style="endArrow=block;dashed=1;endFill=0;endSize=12;html=1;rounded=0;exitX=-0.002;exitY=0.124;exitDx=0;exitDy=0;exitPerimeter=0;" edge="1" parent="1" source="SpYZrqXkeBf5EiIH25qF-50">
          <mxGeometry width="160" relative="1" as="geometry">
            <mxPoint x="443" y="848" as="sourcePoint" />
            <mxPoint x="280" y="1000" as="targetPoint" />
            <Array as="points">
              <mxPoint x="370" y="1000" />
            </Array>
          </mxGeometry>
        </mxCell>
        <mxCell id="SpYZrqXkeBf5EiIH25qF-69" value="" style="endArrow=block;dashed=1;endFill=0;endSize=12;html=1;rounded=0;exitX=-0.019;exitY=0.025;exitDx=0;exitDy=0;exitPerimeter=0;" edge="1" parent="1" source="SpYZrqXkeBf5EiIH25qF-54">
          <mxGeometry width="160" relative="1" as="geometry">
            <mxPoint x="444" y="1010" as="sourcePoint" />
            <mxPoint x="280" y="1000" as="targetPoint" />
            <Array as="points">
              <mxPoint x="360" y="1210" />
              <mxPoint x="360" y="1000" />
            </Array>
          </mxGeometry>
        </mxCell>
        <mxCell id="SpYZrqXkeBf5EiIH25qF-70" value="" style="endArrow=block;dashed=1;endFill=0;endSize=12;html=1;rounded=0;entryX=1.007;entryY=0.818;entryDx=0;entryDy=0;entryPerimeter=0;exitX=-0.003;exitY=0.873;exitDx=0;exitDy=0;exitPerimeter=0;" edge="1" parent="1" source="SpYZrqXkeBf5EiIH25qF-18" target="SpYZrqXkeBf5EiIH25qF-14">
          <mxGeometry width="160" relative="1" as="geometry">
            <mxPoint x="150" y="180" as="sourcePoint" />
            <mxPoint x="310" y="180" as="targetPoint" />
            <Array as="points">
              <mxPoint x="300" y="141" />
              <mxPoint x="300" y="352" />
            </Array>
          </mxGeometry>
        </mxCell>
        <mxCell id="SpYZrqXkeBf5EiIH25qF-71" value="" style="endArrow=block;dashed=1;endFill=0;endSize=12;html=1;rounded=0;entryX=1.007;entryY=0.818;entryDx=0;entryDy=0;entryPerimeter=0;exitX=-0.007;exitY=0.827;exitDx=0;exitDy=0;exitPerimeter=0;" edge="1" parent="1" source="SpYZrqXkeBf5EiIH25qF-26">
          <mxGeometry width="160" relative="1" as="geometry">
            <mxPoint x="330" y="480" as="sourcePoint" />
            <mxPoint x="212" y="351" as="targetPoint" />
            <Array as="points">
              <mxPoint x="301" y="612" />
              <mxPoint x="301" y="351" />
            </Array>
          </mxGeometry>
        </mxCell>
        <mxCell id="SpYZrqXkeBf5EiIH25qF-72" value="" style="endArrow=block;dashed=1;endFill=0;endSize=12;html=1;rounded=0;exitX=-0.002;exitY=0.639;exitDx=0;exitDy=0;exitPerimeter=0;entryX=1.013;entryY=0.805;entryDx=0;entryDy=0;entryPerimeter=0;" edge="1" parent="1" source="SpYZrqXkeBf5EiIH25qF-22" target="SpYZrqXkeBf5EiIH25qF-14">
          <mxGeometry width="160" relative="1" as="geometry">
            <mxPoint x="90" y="440" as="sourcePoint" />
            <mxPoint x="250" y="440" as="targetPoint" />
          </mxGeometry>
        </mxCell>
        <mxCell id="SpYZrqXkeBf5EiIH25qF-75" value="" style="endArrow=open;html=1;endSize=12;startArrow=diamondThin;startSize=14;startFill=0;edgeStyle=orthogonalEdgeStyle;align=left;verticalAlign=bottom;rounded=0;exitX=0;exitY=0.5;exitDx=0;exitDy=0;entryX=0.995;entryY=0.713;entryDx=0;entryDy=0;entryPerimeter=0;" edge="1" parent="1" source="SpYZrqXkeBf5EiIH25qF-14" target="SpYZrqXkeBf5EiIH25qF-64">
          <mxGeometry x="-1" y="3" relative="1" as="geometry">
            <mxPoint x="-220" y="480" as="sourcePoint" />
            <mxPoint x="-60" y="480" as="targetPoint" />
          </mxGeometry>
        </mxCell>
        <mxCell id="SpYZrqXkeBf5EiIH25qF-76" value="" style="endArrow=open;endFill=1;endSize=12;html=1;rounded=0;exitX=0.481;exitY=1.007;exitDx=0;exitDy=0;exitPerimeter=0;entryX=0.479;entryY=0.025;entryDx=0;entryDy=0;entryPerimeter=0;" edge="1" parent="1" source="SpYZrqXkeBf5EiIH25qF-66" target="SpYZrqXkeBf5EiIH25qF-61">
          <mxGeometry width="160" relative="1" as="geometry">
            <mxPoint x="-330" y="490" as="sourcePoint" />
            <mxPoint x="-170" y="490" as="targetPoint" />
          </mxGeometry>
        </mxCell>
        <mxCell id="SpYZrqXkeBf5EiIH25qF-77" value="Asks" style="edgeLabel;html=1;align=center;verticalAlign=middle;resizable=0;points=[];" vertex="1" connectable="0" parent="SpYZrqXkeBf5EiIH25qF-76">
          <mxGeometry x="-0.0226" y="2" relative="1" as="geometry">
            <mxPoint as="offset" />
          </mxGeometry>
        </mxCell>
        <mxCell id="SpYZrqXkeBf5EiIH25qF-79" value="" style="endArrow=none;html=1;rounded=0;" edge="1" parent="1">
          <mxGeometry width="50" height="50" relative="1" as="geometry">
            <mxPoint x="-40" y="760" as="sourcePoint" />
            <mxPoint x="800" y="760" as="targetPoint" />
          </mxGeometry>
        </mxCell>
        <mxCell id="SpYZrqXkeBf5EiIH25qF-80" value="" style="endArrow=none;html=1;rounded=0;" edge="1" parent="1">
          <mxGeometry width="50" height="50" relative="1" as="geometry">
            <mxPoint x="-40" y="1360" as="sourcePoint" />
            <mxPoint x="800" y="1360" as="targetPoint" />
          </mxGeometry>
        </mxCell>
        <mxCell id="SpYZrqXkeBf5EiIH25qF-81" value="" style="endArrow=none;html=1;rounded=0;" edge="1" parent="1">
          <mxGeometry width="50" height="50" relative="1" as="geometry">
            <mxPoint x="-40" y="760" as="sourcePoint" />
            <mxPoint x="-40" y="1360" as="targetPoint" />
          </mxGeometry>
        </mxCell>
        <mxCell id="SpYZrqXkeBf5EiIH25qF-82" value="" style="endArrow=none;html=1;rounded=0;" edge="1" parent="1">
          <mxGeometry width="50" height="50" relative="1" as="geometry">
            <mxPoint x="800" y="760" as="sourcePoint" />
            <mxPoint x="800" y="1360" as="targetPoint" />
          </mxGeometry>
        </mxCell>
        <mxCell id="SpYZrqXkeBf5EiIH25qF-83" value="" style="endArrow=open;endFill=1;endSize=12;html=1;rounded=0;exitX=0.488;exitY=1.093;exitDx=0;exitDy=0;exitPerimeter=0;" edge="1" parent="1" source="SpYZrqXkeBf5EiIH25qF-62">
          <mxGeometry width="160" relative="1" as="geometry">
            <mxPoint x="-350" y="850" as="sourcePoint" />
            <mxPoint x="-40" y="1040" as="targetPoint" />
            <Array as="points">
              <mxPoint x="-318" y="1040" />
            </Array>
          </mxGeometry>
        </mxCell>
        <mxCell id="SpYZrqXkeBf5EiIH25qF-84" value="Creates" style="edgeLabel;html=1;align=center;verticalAlign=middle;resizable=0;points=[];" vertex="1" connectable="0" parent="SpYZrqXkeBf5EiIH25qF-83">
          <mxGeometry x="0.5597" y="-1" relative="1" as="geometry">
            <mxPoint as="offset" />
          </mxGeometry>
        </mxCell>
        <mxCell id="SpYZrqXkeBf5EiIH25qF-85" value="" style="endArrow=none;html=1;rounded=0;" edge="1" parent="1">
          <mxGeometry width="50" height="50" relative="1" as="geometry">
            <mxPoint x="-40" y="10" as="sourcePoint" />
            <mxPoint x="-40" y="730" as="targetPoint" />
          </mxGeometry>
        </mxCell>
        <mxCell id="SpYZrqXkeBf5EiIH25qF-86" value="" style="endArrow=none;html=1;rounded=0;" edge="1" parent="1">
          <mxGeometry width="50" height="50" relative="1" as="geometry">
            <mxPoint x="-40" y="730" as="sourcePoint" />
            <mxPoint x="820" y="730" as="targetPoint" />
          </mxGeometry>
        </mxCell>
        <mxCell id="SpYZrqXkeBf5EiIH25qF-90" value="" style="endArrow=none;html=1;rounded=0;" edge="1" parent="1">
          <mxGeometry width="50" height="50" relative="1" as="geometry">
            <mxPoint x="-40" y="10" as="sourcePoint" />
            <mxPoint x="820" y="10" as="targetPoint" />
          </mxGeometry>
        </mxCell>
        <mxCell id="SpYZrqXkeBf5EiIH25qF-91" value="" style="endArrow=open;endFill=1;endSize=12;html=1;rounded=0;" edge="1" parent="1">
          <mxGeometry width="160" relative="1" as="geometry">
            <mxPoint x="800" y="1050" as="sourcePoint" />
            <mxPoint x="820" y="390" as="targetPoint" />
            <Array as="points">
              <mxPoint x="920" y="1050" />
              <mxPoint x="920" y="390" />
            </Array>
          </mxGeometry>
        </mxCell>
        <mxCell id="SpYZrqXkeBf5EiIH25qF-94" value="Creates" style="edgeLabel;html=1;align=center;verticalAlign=middle;resizable=0;points=[];" vertex="1" connectable="0" parent="SpYZrqXkeBf5EiIH25qF-91">
          <mxGeometry x="0.0242" y="-1" relative="1" as="geometry">
            <mxPoint y="-1" as="offset" />
          </mxGeometry>
        </mxCell>
      </root>
    </mxGraphModel>
  </diagram>
</mxfile>
